<?xml version="1.0" encoding="utf-8"?>
<!-- Generator: Adobe Illustrator 24.0.1, SVG Export Plug-In . SVG Version: 6.00 Build 0)  -->
<svg version="1.1" id="Capa_1" xmlns="http://www.w3.org/2000/svg" xmlns:xlink="http://www.w3.org/1999/xlink" x="0px" y="0px"
	 viewBox="0 0 57.9 19.6" style="enable-background:new 0 0 57.9 19.6;" xml:space="preserve">
<style type="text/css">
	.st0{opacity:0.83;}
	.st1{fill:#F1F6E0;}
	.st2{fill:#C6DC95;}
	.st3{fill:#66B32E;}
	.st4{fill:#FFFFFF;}
</style>
<g class="st0">
	<g>
		<path class="st1" d="M48.2,4H19.5c-0.7,0-1.3,0.6-1.3,1.3v0.2c0,0.7,0.6,1.3,1.3,1.3h13.4c-0.2,0.2-0.3,0.4-0.3,0.6v0.8
			c0,0.2,0.1,0.4,0.2,0.5h-8.8c-0.6,0-1.1,0.4-1.2,0.9H8.6c-0.7,0-1.3,0.6-1.3,1.3v0.2c0,0.7,0.6,1.3,1.3,1.3h2.8
			c-0.2,0.2-0.3,0.5-0.3,0.7v0.5c0,0.2,0.1,0.4,0.2,0.6H2.7c-0.7,0-1.3,0.6-1.3,1.3V16c0,0.7,0.6,1.3,1.3,1.3h26.9
			c0.7,0,1.3-0.6,1.3-1.3v-0.2c0-0.7-0.6-1.3-1.3-1.3h-2.1c0.1-0.2,0.2-0.4,0.2-0.6v-0.5c0-0.3-0.1-0.5-0.3-0.7h8.1
			c0.6,0,1.1-0.4,1.2-0.9h8.7c0.7,0,1.3-0.6,1.3-1.3v-0.2c0-0.7-0.6-1.3-1.3-1.3H40c0.1-0.2,0.2-0.3,0.2-0.5V7.6
			c0-0.3-0.1-0.5-0.3-0.6h8.3c0.7,0,1.3-0.6,1.3-1.3V5.4C49.6,4.6,49,4,48.2,4z"/>
	</g>
</g>
<g>
	<circle class="st2" cx="28.8" cy="10.6" r="7.4"/>
</g>
<g>
	<path class="st1" d="M54.1,7.6h-0.8C52.6,7.6,52,7,52,6.3v0c0-0.7,0.6-1.3,1.3-1.3h0.8c0.7,0,1.3,0.6,1.3,1.3v0
		C55.4,7,54.8,7.6,54.1,7.6z"/>
</g>
<g class="st0">
	<g>
		<circle class="st1" cx="28.3" cy="10.1" r="6.9"/>
	</g>
</g>
<g>
	<path class="st3" d="M28.2,17.5c-2.5,0-5.1-1.2-6.5-3.4c-0.1-0.1,0-0.3,0.1-0.3c0.1-0.1,0.3,0,0.3,0.1c2,3,6.3,4.1,9.4,2.3
		c0.1-0.1,0.3,0,0.3,0.1c0.1,0.1,0,0.3-0.1,0.3C30.7,17.3,29.5,17.5,28.2,17.5z"/>
</g>
<g>
	<path class="st3" d="M32.7,16c-0.1,0-0.1,0-0.2-0.1c-0.1-0.1-0.1-0.3,0-0.3c0.2-0.2,0.5-0.4,0.7-0.6c0.1-0.1,0.3-0.1,0.3,0
		c0.1,0.1,0.1,0.3,0,0.3c-0.2,0.2-0.5,0.4-0.7,0.6C32.8,16,32.7,16,32.7,16z"/>
</g>
<g>
	<path class="st3" d="M34.2,14.2c0,0-0.1,0-0.1,0C34,14.1,34,13.9,34,13.8c0.9-1.3,1.3-2.8,1.2-4.2c-0.1-2-1.3-4-3.1-5.3
		c-1.8-1.3-4-1.7-5.9-1.2c-0.1,0-0.3,0-0.3-0.2c0-0.1,0-0.3,0.2-0.3c2.1-0.6,4.4-0.1,6.3,1.3c1.9,1.4,3.2,3.5,3.3,5.7
		c0.1,1.5-0.4,3.2-1.3,4.5C34.4,14.2,34.3,14.2,34.2,14.2z"/>
</g>
<g>
	<path class="st3" d="M20.7,10.3c-0.1,0-0.2-0.1-0.2-0.2c0-2.9,1.6-5.6,4.2-6.9c0.1-0.1,0.3,0,0.3,0.1c0.1,0.1,0,0.3-0.1,0.3
		c-2.4,1.2-3.9,3.8-3.9,6.5C20.9,10.1,20.8,10.3,20.7,10.3C20.7,10.3,20.7,10.3,20.7,10.3z"/>
</g>
<g>
	<path class="st4" d="M27.1,11.8l-2.9-2.9c-0.1-0.1-0.1-0.3,0-0.3c0.1-0.1,0.3-0.1,0.3,0l2.6,2.6l4-4c0.1-0.1,0.3-0.1,0.3,0
		c0.1,0.1,0.1,0.3,0,0.3L27.1,11.8z"/>
</g>
<g>
	<path class="st3" d="M12.8,8.4c-0.2,0-0.5-0.1-0.7-0.2c-0.8-0.4-1.1-1.4-0.7-2.2c0.2-0.4,0.5-0.7,0.9-0.8c0.4-0.1,0.9-0.1,1.2,0.1
		h0c0.8,0.4,1.1,1.4,0.7,2.2c-0.2,0.4-0.5,0.7-0.9,0.8C13.1,8.4,13,8.4,12.8,8.4z M12.8,5.6c-0.1,0-0.2,0-0.4,0.1
		c-0.3,0.1-0.5,0.3-0.7,0.6c-0.3,0.6-0.1,1.2,0.5,1.5c0.3,0.1,0.6,0.2,0.9,0.1c0.3-0.1,0.5-0.3,0.7-0.6c0.3-0.6,0.1-1.2-0.5-1.5h0
		C13.1,5.7,13,5.6,12.8,5.6z"/>
</g>
<g>
	<path class="st3" d="M40.4,15.5c-0.7,0-1.3-0.6-1.3-1.3c0-0.7,0.6-1.3,1.3-1.3s1.3,0.6,1.3,1.3C41.7,14.9,41.1,15.5,40.4,15.5z
		 M40.4,13.3c-0.4,0-0.8,0.4-0.8,0.8s0.4,0.8,0.8,0.8c0.4,0,0.8-0.4,0.8-0.8S40.8,13.3,40.4,13.3z"/>
</g>
<g>
	<rect x="54.7" y="2.2" class="st3" width="0.5" height="1.9"/>
</g>
<g>
	<rect x="54" y="2.9" class="st3" width="1.7" height="0.5"/>
</g>
<g>
	<path class="st3" d="M27.1,12.4l-2.9-2.9c-0.1-0.1-0.1-0.3,0-0.3c0.1-0.1,0.3-0.1,0.3,0l2.6,2.6l4-4c0.1-0.1,0.3-0.1,0.3,0
		c0.1,0.1,0.1,0.3,0,0.3L27.1,12.4z"/>
</g>
</svg>
