<?xml version="1.0" encoding="utf-8"?>
<!-- Generator: Adobe Illustrator 24.0.1, SVG Export Plug-In . SVG Version: 6.00 Build 0)  -->
<svg version="1.1" id="Capa_1" xmlns="http://www.w3.org/2000/svg" xmlns:xlink="http://www.w3.org/1999/xlink" x="0px" y="0px"
	 viewBox="0 0 17.7 17.1" style="enable-background:new 0 0 17.7 17.1;" xml:space="preserve">
<style type="text/css">
	.st0{fill:#FB9E92;}
	.st1{fill:#FEC1BB;}
	.st2{fill:#E03B3B;}
	.st3{fill:#FFFFFF;}
</style>
<g>
	<g>
		<circle class="st0" cx="9.6" cy="9" r="7.4"/>
	</g>
</g>
<g>
	<g>
		<g>
			<circle class="st1" cx="9.1" cy="8.5" r="6.9"/>
		</g>
	</g>
</g>
<g>
	<path class="st2" d="M9,16c-2.5,0-5.1-1.2-6.5-3.4c-0.1-0.1,0-0.3,0.1-0.3c0.1-0.1,0.3,0,0.3,0.1c2,3,6.3,4.1,9.4,2.3
		c0.1-0.1,0.3,0,0.3,0.1c0.1,0.1,0,0.3-0.1,0.3C11.5,15.7,10.2,16,9,16z"/>
</g>
<g>
	<path class="st2" d="M13.4,14.4c-0.1,0-0.1,0-0.2-0.1c-0.1-0.1-0.1-0.3,0-0.3c0.2-0.2,0.5-0.4,0.7-0.6c0.1-0.1,0.3-0.1,0.3,0
		c0.1,0.1,0.1,0.3,0,0.3c-0.2,0.2-0.5,0.4-0.7,0.6C13.6,14.4,13.5,14.4,13.4,14.4z"/>
</g>
<g>
	<path class="st2" d="M15,12.6h-0.1c-0.1-0.1-0.1-0.2-0.1-0.3c0.9-1.3,1.3-2.8,1.2-4.2c-0.1-2-1.3-4-3.1-5.3C11.1,1.4,9,0.9,7,1.4
		c-0.1,0-0.3,0-0.3-0.2c0-0.1,0-0.3,0.2-0.3c2.1-0.6,4.4-0.1,6.3,1.3s3.2,3.5,3.3,5.7c0.1,1.5-0.4,3.2-1.3,4.5
		C15.2,12.6,15.1,12.6,15,12.6z"/>
</g>
<g>
	<g>
		<path class="st2" d="M1.5,8.7c-0.1,0-0.2-0.1-0.2-0.2c0-2.9,1.6-5.6,4.2-6.9c0.1-0.1,0.3,0,0.3,0.1C5.9,1.8,5.8,2,5.7,2
			c-2.4,1.2-4,3.7-4,6.4C1.7,8.5,1.6,8.7,1.5,8.7L1.5,8.7z"/>
	</g>
</g>
<g>
	<path class="st3" d="M12.1,5.7c0-0.1-0.2-0.1-0.4,0l-4.5,4.5c-0.3,0.3-0.5,0.6-0.9,0.9l0.4,0.4l5.4-5.4C12.2,6.1,12.2,5.8,12.1,5.7
		z"/>
</g>
<g>
	<path class="st2" d="M12,6c0-0.1-0.2-0.1-0.4,0.1l-5,5l0,0c-0.1,0.1-0.2,0.3-0.3,0.4l0.4,0.4L12,6.4C12.1,6.4,12.1,6.1,12,6z"/>
</g>
</svg>
